<svg width="320" height="320" viewBox="0 0 256 256" xmlns="http://www.w3.org/2000/svg"><path fill="#1DB1E7" d="m108.47 6.7c7.48-3.03 12.26 6.82 19.53 6.69 6.54-.08 10.6-7.14 17.07-7.42 7.52 1.32 8.07 11.62 15.05 13.92 6.22 2.04 12.99-3.34 18.94-.04 4.93 4.65 2.69 12.87 7.29 17.8 4.88 4.6 13.24 2.11 17.73 7.29 3.47 6.41-2.92 13.84.53 20.3 3.27 5.41 11.29 6.6 13.28 12.95.48 7.18-8.2 11.47-7.36 18.78 1 5.97 7.07 9.89 7.45 16.05-1.48 7.47-11.69 8.09-14.03 15.08-1.76 6.09 3 12.47.38 18.45-4.32 5.62-13.16 2.86-17.99 7.78-4.72 4.82-2.21 13.26-7.43 17.69-6.21 3.3-13.31-2.58-19.66.2-5.94 2.9-6.88 11.42-13.37 13.51-6.93.64-11.08-7.27-17.88-7.35-6.8.08-10.95 8.05-17.88 7.35-7.07-2.25-7.74-12.4-15.19-14.13-5.73-.85-11.55 2.83-17.18.82-6.38-4.12-2.93-13.93-8.62-18.63-5.03-4.16-13.32-1.84-17.51-7.23-2.54-6.05 2.31-12.46.33-18.59-2.35-6.92-12.51-7.49-13.94-14.96.43-6.13 6.5-10.05 7.43-16.03.91-7.33-7.83-11.6-7.33-18.8 2.05-6.61 10.72-7.56 13.61-13.61 2.76-6.38-3.21-13.44.2-19.62 4.42-5.27 12.86-2.64 17.73-7.3 4.86-4.97 1.99-13.94 7.87-18.14 6.36-2.88 13.53 3.27 19.86-.24 4.84-3.07 6.31-9.42 11.09-12.57m12.06 26.05c-30.65 3.26-56.44 31.23-56.02 62.27-1.32 31.15 23.89 60 54.64 63.85 21.29 3.08 43.89-5.52 57.59-22.14 21.19-24.42 19.25-64.82-4.74-86.69-13.46-13.05-32.88-19.49-51.47-17.29"/><g fill="#1DB1E7"><path d="m117.51 44.79c19-4.11 39.81 3.73 51.51 19.18 12.7 15.64 14.89 39.07 4.74 56.57-9.95 19.39-33.13 30.8-54.58 26.76-15.28-2.59-29.22-12.5-36.62-26.13-8.98-15.27-9.01-35.49.12-50.7 7.11-13.1 20.33-22.55 34.83-25.68m7.03 14.76c-3.15 6.29-5.89 12.78-8.89 19.15-7.18.97-14.42 1.54-21.57 2.71-2.79.45-3.9 4.31-1.74 6.16 4.95 5.16 10.48 9.73 15.63 14.69-1.28 6.94-2.87 13.83-4.02 20.8-.74 2.73 2.39 5.62 4.99 4.22 6.5-3.19 12.64-7.08 19.06-10.45 6.41 3.39 12.55 7.31 19.08 10.46 2.59 1.37 5.7-1.51 4.97-4.24-1.12-6.97-2.73-13.86-4.07-20.8 5.23-4.89 10.68-9.56 15.71-14.66 2.12-1.85 1.03-5.73-1.77-6.16-7.14-1.25-14.41-1.72-21.59-2.74-2.92-6.39-5.78-12.83-8.87-19.14-1.18-3.01-5.74-3.01-6.92 0"/><path d="m84.11 184.28c2.63-.43 5.27-.89 7.9-1.37 4.77 8.56 13.31 16.82 24.03 13.84-3.59 17.77-7.2 35.53-10.81 53.3-4.71-4.45-9.34-8.98-13.97-13.51-6.32 1.56-12.63 3.19-18.96 4.7 3.89-19 7.78-37.99 11.81-56.96"/><path d="m164 182.9c2.65.47 5.29.95 7.94 1.42 3.92 18.98 7.89 37.95 11.77 56.94-6.32-1.53-12.62-3.18-18.94-4.71-4.69 4.5-9.29 9.09-14.02 13.55-3.56-17.82-7.22-35.61-10.84-53.42 10.59 3.02 19.48-5.13 24.09-13.78"/></g></svg>