<?xml version="1.0" encoding="UTF-8" ?>
<!DOCTYPE svg PUBLIC "-//W3C//DTD SVG 1.1//EN" "http://www.w3.org/Graphics/SVG/1.1/DTD/svg11.dtd">
<svg width="152pt" height="155pt" viewBox="0 0 152 155" version="1.1" xmlns="http://www.w3.org/2000/svg">
<g id="#ffffffff">
<path fill="#ffffff" opacity="1.00" d=" M 8.47 5.53 C 19.69 4.65 31.32 4.63 42.53 5.54 C 43.81 6.25 44.89 7.26 45.30 8.71 C 45.72 9.14 46.57 10.00 47.00 10.43 C 46.25 21.42 48.52 32.99 45.82 43.61 C 45.11 45.19 44.07 46.60 42.54 47.48 C 31.29 48.70 19.79 47.65 8.44 48.00 C 7.00 46.48 5.52 45.00 4.00 43.56 C 3.99 32.17 4.03 20.79 3.98 9.41 C 5.41 8.04 6.84 6.65 8.47 5.53 Z" />
<path fill="#ffffff" opacity="1.00" d=" M 59.47 5.53 C 81.53 4.29 103.84 5.35 126.00 5.00 C 131.82 5.32 137.80 4.33 143.53 5.53 C 145.16 6.65 146.59 8.04 148.02 9.41 C 147.99 20.80 147.98 32.20 148.02 43.59 C 146.59 44.96 145.16 46.35 143.53 47.47 C 115.62 48.71 87.45 47.64 59.44 48.01 C 57.73 46.25 55.91 44.57 54.53 42.53 C 53.90 32.33 53.14 21.31 54.90 11.36 C 54.93 10.87 54.98 9.89 55.00 9.40 C 56.42 8.03 57.84 6.65 59.47 5.53 Z" />
<path fill="#ffffff" opacity="1.00" d=" M 10.43 56.72 C 20.18 55.64 31.03 55.27 40.64 56.90 C 41.13 56.93 42.11 56.98 42.60 57.00 C 43.97 58.42 45.35 59.84 46.47 61.47 C 47.35 72.35 47.35 83.65 46.47 94.53 C 45.35 96.16 43.97 97.58 42.60 99.00 C 42.11 99.02 41.13 99.07 40.64 99.10 C 37.15 101.04 32.83 99.55 29.00 100.00 C 22.85 99.54 16.37 100.94 10.43 99.28 C 9.44 99.01 8.45 98.72 7.46 98.41 C 6.24 97.73 5.26 96.73 4.53 95.54 C 3.65 83.98 3.65 72.02 4.53 60.46 C 5.26 59.27 6.24 58.27 7.46 57.59 C 8.45 57.28 9.44 56.99 10.43 56.72 Z" />
<path fill="#ffffff" opacity="1.00" d=" M 60.36 56.90 C 61.65 55.70 63.42 56.04 64.99 55.98 C 90.00 56.04 115.01 55.97 140.01 56.01 C 141.32 55.93 142.42 56.75 143.61 57.18 C 145.19 57.89 146.60 58.93 147.48 60.46 C 148.35 72.02 148.36 83.98 147.47 95.54 C 146.74 96.73 145.76 97.73 144.54 98.41 C 143.55 98.72 142.56 99.01 141.57 99.28 C 140.19 100.15 138.56 100.01 137.02 100.02 C 112.05 99.94 87.09 100.08 62.13 99.96 C 61.69 99.74 60.80 99.32 60.36 99.10 C 59.88 99.07 58.92 99.01 58.44 98.98 C 57.31 97.82 56.17 96.68 55.01 95.56 C 54.99 94.58 54.96 93.61 54.92 92.64 C 52.83 87.86 54.56 82.15 54.00 77.00 C 54.53 72.18 52.88 66.84 54.90 62.36 C 54.93 61.88 54.99 60.92 55.02 60.44 C 56.17 59.32 57.32 58.17 58.44 57.02 C 58.92 56.99 59.88 56.93 60.36 56.90 Z" />
<path fill="#ffffff" opacity="1.00" d=" M 8.44 108.00 C 19.78 108.36 31.29 107.27 42.52 108.54 C 44.16 109.50 45.50 110.84 46.46 112.48 C 47.71 119.52 46.65 126.84 47.00 134.00 C 46.65 138.19 47.99 142.76 45.82 146.61 C 45.11 148.19 44.07 149.60 42.54 150.48 C 31.32 151.34 19.69 151.38 8.48 150.46 C 6.84 149.50 5.50 148.15 4.54 146.52 C 3.27 135.29 4.36 123.78 4.00 112.44 C 5.52 111.00 7.00 109.52 8.44 108.00 Z" />
<path fill="#ffffff" opacity="1.00" d=" M 59.44 108.00 C 87.45 108.35 115.62 107.29 143.53 108.53 C 145.16 109.65 146.59 111.04 148.02 112.41 C 147.61 123.76 148.74 135.28 147.46 146.52 C 146.50 148.15 145.15 149.50 143.52 150.46 C 121.47 151.72 99.15 150.64 76.99 151.00 C 71.17 150.67 65.20 151.68 59.48 150.47 C 57.49 149.21 55.79 147.51 54.53 145.52 C 53.89 135.32 53.15 124.31 54.90 114.36 C 54.93 113.88 54.99 112.92 55.02 112.43 C 56.52 110.99 58.00 109.51 59.44 108.00 Z" />
</g>
</svg>
